<svg width="39" height="38" viewBox="0 0 39 38" fill="none" xmlns="http://www.w3.org/2000/svg">
<path d="M36.7172 1.7829C39.0942 4.16013 39.0943 8.01439 36.7172 10.3915L28.1086 19.0001L36.7172 27.6088C39.0942 29.986 39.0943 33.8403 36.7172 36.2174C34.34 38.5942 30.4857 38.5943 28.1086 36.2174L19.5 27.6088L10.8913 36.2174C8.51418 38.5942 4.65982 38.5943 2.28272 36.2174C-0.0943625 33.8403 -0.0941174 29.986 2.28272 27.6088L10.8913 19.0001L2.28272 10.3915C-0.094362 8.01444 -0.0941159 4.16014 2.28272 1.7829C4.65992 -0.594301 8.51414 -0.594301 10.8913 1.7829L19.5 10.3915L28.1086 1.7829C30.4858 -0.594301 34.34 -0.594301 36.7172 1.7829Z" fill="#3B8AD5"/>
</svg>
